<svg width="968" height="968" viewBox="0 0 968 968" fill="none" xmlns="http://www.w3.org/2000/svg">
<g clip-path="url(#clip0_156_2)">
<rect width="968" height="968" fill="white"/>
<rect x="16" y="16" width="936" height="936" rx="194" stroke="black" stroke-width="32"/>
<mask id="path-2-inside-1_156_2" fill="white">
<path d="M253.338 530.294C243.066 494.556 241.24 456.92 248.002 420.355C254.764 383.79 269.93 349.297 292.304 319.596C314.677 289.895 343.646 265.799 376.925 249.21C410.204 232.62 446.883 223.99 484.068 224C521.252 224.01 557.926 232.661 591.196 249.27C624.465 265.878 653.421 289.991 675.778 319.704C698.134 349.417 713.281 383.919 720.023 420.488C726.764 457.057 724.916 494.692 714.625 530.424L668.5 517.139C676.733 488.553 678.211 458.445 672.818 429.19C667.425 399.935 655.308 372.334 637.422 348.563C619.537 324.792 596.372 305.503 569.757 292.216C543.141 278.929 513.802 272.008 484.054 272C454.306 271.992 424.963 278.896 398.34 292.168C371.717 305.44 348.542 324.716 330.643 348.477C312.744 372.238 300.611 399.832 295.201 429.084C289.792 458.336 291.253 488.445 299.47 517.035L253.338 530.294Z"/>
</mask>
<path d="M253.338 530.294C243.066 494.556 241.24 456.92 248.002 420.355C254.764 383.79 269.93 349.297 292.304 319.596C314.677 289.895 343.646 265.799 376.925 249.21C410.204 232.62 446.883 223.99 484.068 224C521.252 224.01 557.926 232.661 591.196 249.27C624.465 265.878 653.421 289.991 675.778 319.704C698.134 349.417 713.281 383.919 720.023 420.488C726.764 457.057 724.916 494.692 714.625 530.424L668.5 517.139C676.733 488.553 678.211 458.445 672.818 429.19C667.425 399.935 655.308 372.334 637.422 348.563C619.537 324.792 596.372 305.503 569.757 292.216C543.141 278.929 513.802 272.008 484.054 272C454.306 271.992 424.963 278.896 398.34 292.168C371.717 305.44 348.542 324.716 330.643 348.477C312.744 372.238 300.611 399.832 295.201 429.084C289.792 458.336 291.253 488.445 299.47 517.035L253.338 530.294Z" stroke="black" stroke-width="64" mask="url(#path-2-inside-1_156_2)"/>
<circle cx="484" cy="464" r="192" fill="black" stroke="white" stroke-width="32"/>
<rect x="468" y="639" width="32" height="74" fill="black"/>
<rect x="574" y="713" width="32" height="180" rx="12" transform="rotate(90 574 713)" fill="black"/>
<circle cx="484" cy="464" r="145" fill="white"/>
<path d="M429 388C435.627 388 441 393.373 441 400L441 408C441 414.627 435.627 420 429 420L343 420L343 388L429 388Z" fill="black"/>
<path d="M429 448C435.627 448 441 453.373 441 460L441 468C441 474.627 435.627 480 429 480L339 480L339 448L429 448Z" fill="black"/>
<path d="M429 508C435.627 508 441 513.373 441 520L441 528C441 534.627 435.627 540 429 540L339 540L339 508L429 508Z" fill="black"/>
<path d="M539 540C532.373 540 527 534.627 527 528L527 520C527 513.373 532.373 508 539 508L625 508L625 540L539 540Z" fill="black"/>
<path d="M539 480C532.373 480 527 474.627 527 468L527 460C527 453.373 532.373 448 539 448L629 448L629 480L539 480Z" fill="black"/>
<path d="M539 420C532.373 420 527 414.627 527 408L527 400C527 393.373 532.373 388 539 388L629 388L629 420L539 420Z" fill="black"/>
</g>
<defs>
<clipPath id="clip0_156_2">
<rect width="968" height="968" fill="white"/>
</clipPath>
</defs>
</svg>
